<mxfile host="65bd71144e">
    <diagram id="fRT1E79Y7r4I_pbit_at" name="Pagina-1">
        <mxGraphModel dx="797" dy="3052" grid="1" gridSize="10" guides="1" tooltips="1" connect="1" arrows="1" fold="1" page="1" pageScale="1" pageWidth="1169" pageHeight="827" math="0" shadow="0">
            <root>
                <mxCell id="0"/>
                <mxCell id="1" parent="0"/>
                <mxCell id="2" style="edgeStyle=orthogonalEdgeStyle;rounded=0;html=1;exitX=0.5;exitY=0;exitDx=0;exitDy=0;entryX=0;entryY=0.5;entryDx=0;entryDy=0;startArrow=none;startFill=0;endArrow=classic;endFill=1;fontSize=12;" parent="1" source="3" target="5" edge="1">
                    <mxGeometry relative="1" as="geometry"/>
                </mxCell>
                <mxCell id="3" value="PC" style="rounded=0;whiteSpace=wrap;html=1;direction=south;fontSize=12;points=[[0,0,0,0,0],[0,0.26,0,0,0],[0,0.5,0,0,0],[0,0.76,0,0,0],[0,1,0,0,0],[0.23,0,0,0,0],[0.23,1,0,0,0],[0.5,0,0,0,0],[0.5,1,0,0,0],[0.73,0,0,0,0],[0.73,1,0,0,0],[1,0,0,0,0],[1,0.26,0,0,0],[1,0.5,0,0,0],[1,0.76,0,0,0],[1,1,0,0,0]];" parent="1" vertex="1">
                    <mxGeometry x="210" y="-2220" width="30" height="70" as="geometry"/>
                </mxCell>
                <mxCell id="22" style="edgeStyle=none;rounded=0;html=1;exitX=1;exitY=0.5;exitDx=0;exitDy=0;entryX=0.364;entryY=1;entryDx=0;entryDy=0;sourcePerimeterSpacing=-2;targetPerimeterSpacing=2;entryPerimeter=0;fontSize=12;" parent="1" source="5" target="20" edge="1">
                    <mxGeometry relative="1" as="geometry"/>
                </mxCell>
                <mxCell id="5" value="MI" style="whiteSpace=wrap;html=1;aspect=fixed;fontSize=12;" parent="1" vertex="1">
                    <mxGeometry x="300" y="-2210" width="50" height="50" as="geometry"/>
                </mxCell>
                <mxCell id="9" style="edgeStyle=none;html=1;exitX=1;exitY=0.5;exitDx=0;exitDy=0;fontSize=12;" parent="1" source="6" edge="1">
                    <mxGeometry relative="1" as="geometry">
                        <mxPoint x="640" y="-2175" as="targetPoint"/>
                    </mxGeometry>
                </mxCell>
                <mxCell id="6" value="REG" style="whiteSpace=wrap;html=1;aspect=fixed;fontSize=12;" parent="1" vertex="1">
                    <mxGeometry x="530" y="-2210" width="70" height="70" as="geometry"/>
                </mxCell>
                <mxCell id="10" style="edgeStyle=none;html=1;exitX=1;exitY=0.5;exitDx=0;exitDy=0;fontSize=12;" parent="1" source="7" edge="1">
                    <mxGeometry relative="1" as="geometry">
                        <mxPoint x="640" y="-2095" as="targetPoint"/>
                    </mxGeometry>
                </mxCell>
                <mxCell id="7" value="EXT" style="shape=manualInput;whiteSpace=wrap;html=1;size=13;verticalAlign=middle;labelPosition=center;verticalLabelPosition=middle;align=center;spacingBottom=-5;spacingTop=9;fontSize=12;" parent="1" vertex="1">
                    <mxGeometry x="530" y="-2115" width="70" height="40" as="geometry"/>
                </mxCell>
                <mxCell id="24" style="edgeStyle=none;rounded=0;html=1;exitX=0.297;exitY=0.004;exitDx=0;exitDy=0;entryX=0;entryY=0.25;entryDx=0;entryDy=0;sourcePerimeterSpacing=-2;targetPerimeterSpacing=2;exitPerimeter=0;fontSize=12;" parent="1" source="20" target="6" edge="1">
                    <mxGeometry relative="1" as="geometry"/>
                </mxCell>
                <mxCell id="25" style="edgeStyle=none;rounded=0;html=1;exitX=0.457;exitY=0.015;exitDx=0;exitDy=0;sourcePerimeterSpacing=-2;targetPerimeterSpacing=2;exitPerimeter=0;entryX=0;entryY=0.5;entryDx=0;entryDy=0;fontSize=12;" parent="1" source="20" target="6" edge="1">
                    <mxGeometry relative="1" as="geometry">
                        <mxPoint x="440" y="-2175" as="targetPoint"/>
                        <Array as="points"/>
                    </mxGeometry>
                </mxCell>
                <mxCell id="27" style="edgeStyle=orthogonalEdgeStyle;rounded=0;html=1;exitX=1;exitY=0.5;exitDx=0;exitDy=0;entryX=0;entryY=0.625;entryDx=0;entryDy=0;entryPerimeter=0;sourcePerimeterSpacing=-2;targetPerimeterSpacing=2;fontSize=12;" parent="1" source="20" target="7" edge="1">
                    <mxGeometry relative="1" as="geometry"/>
                </mxCell>
                <mxCell id="20" value="ISTR" style="rounded=0;whiteSpace=wrap;html=1;direction=south;fontSize=12;" parent="1" vertex="1">
                    <mxGeometry x="410" y="-2225" width="50" height="110" as="geometry"/>
                </mxCell>
            </root>
        </mxGraphModel>
    </diagram>
</mxfile>